<svg width="203" height="177" viewBox="0 0 203 177" fill="none" xmlns="http://www.w3.org/2000/svg">
<path d="M22.5556 11.0625C10.1148 11.0625 0 20.9842 0 33.1875V44.25H203V33.1875C203 20.9842 192.885 11.0625 180.444 11.0625H22.5556ZM203 77.4375H0V143.812C0 156.016 10.1148 165.938 22.5556 165.938H180.444C192.885 165.938 203 156.016 203 143.812V77.4375ZM39.4722 121.688H62.0278C65.1292 121.688 67.6667 124.177 67.6667 127.219C67.6667 130.261 65.1292 132.75 62.0278 132.75H39.4722C36.3708 132.75 33.8333 130.261 33.8333 127.219C33.8333 124.177 36.3708 121.688 39.4722 121.688ZM78.9444 127.219C78.9444 124.177 81.4819 121.688 84.5833 121.688H129.694C132.796 121.688 135.333 124.177 135.333 127.219C135.333 130.261 132.796 132.75 129.694 132.75H84.5833C81.4819 132.75 78.9444 130.261 78.9444 127.219Z" fill="white"/>
</svg>
