<svg width="132" height="156" viewBox="0 0 132 156" fill="none" xmlns="http://www.w3.org/2000/svg">
<path d="M38.0714 91.8758C36.8752 98.4381 32.1243 129.028 30.723 137.675C30.6205 138.29 30.3812 138.53 29.6977 138.53H4.20042C1.60284 138.53 -0.276978 136.274 0.0648078 133.779L20.0935 6.66859C20.6061 3.38744 23.5455 0.892405 26.9292 0.892405C78.9832 0.892405 83.358 -0.372203 96.6535 4.78876C117.195 12.7524 119.075 31.9607 111.692 52.7413C104.344 74.1371 86.9126 83.3312 63.8079 83.6046C48.9744 83.8439 40.0538 81.2121 38.0714 91.8758ZM122.048 42.6928C121.433 42.2485 121.194 42.0776 121.023 43.1371C120.339 47.0335 119.28 50.8273 118.015 54.6212C104.378 93.5164 66.5763 90.1327 48.1199 90.1327C46.035 90.1327 44.6679 91.2606 44.3944 93.3455C36.6701 141.332 35.132 151.347 35.132 151.347C34.7903 153.773 36.3283 155.756 38.755 155.756H60.4584C63.3977 155.756 65.8244 153.602 66.4055 150.663C66.6447 148.817 66.0295 152.748 71.3272 119.458C72.8994 111.939 76.2147 112.725 81.3415 112.725C105.608 112.725 124.543 102.881 130.183 74.3422C132.404 62.4481 131.755 49.9387 122.048 42.6928Z" fill="white"/>
</svg>
