<svg width="155" height="155" viewBox="0 0 155 155" fill="none" xmlns="http://www.w3.org/2000/svg">
<g clip-path="url(#clip0_52_21)">
<path d="M9.6875 46.5H36.8125C39.3818 46.5 41.8458 45.4794 43.6626 43.6626C45.4794 41.8458 46.5 39.3818 46.5 36.8125V9.6875C46.5 7.11822 45.4794 4.65416 43.6626 2.8374C41.8458 1.02064 39.3818 0 36.8125 0L9.6875 0C7.11822 0 4.65416 1.02064 2.8374 2.8374C1.02064 4.65416 0 7.11822 0 9.6875L0 36.8125C0 39.3818 1.02064 41.8458 2.8374 43.6626C4.65416 45.4794 7.11822 46.5 9.6875 46.5ZM7.75 9.6875C7.7508 9.17389 7.95519 8.68154 8.31837 8.31837C8.68154 7.95519 9.17389 7.7508 9.6875 7.75H36.8125C37.3261 7.7508 37.8185 7.95519 38.1816 8.31837C38.5448 8.68154 38.7492 9.17389 38.75 9.6875V36.8125C38.7492 37.3261 38.5448 37.8185 38.1816 38.1816C37.8185 38.5448 37.3261 38.7492 36.8125 38.75H9.6875C9.17389 38.7492 8.68154 38.5448 8.31837 38.1816C7.95519 37.8185 7.7508 37.3261 7.75 36.8125V9.6875Z" fill="white"/>
<path d="M31 15.5H15.5V31H31V15.5Z" fill="white"/>
<path d="M36.8125 108.5H9.6875C7.11822 108.5 4.65416 109.521 2.8374 111.337C1.02064 113.154 0 115.618 0 118.188L0 145.312C0 147.882 1.02064 150.346 2.8374 152.163C4.65416 153.979 7.11822 155 9.6875 155H36.8125C39.3818 155 41.8458 153.979 43.6626 152.163C45.4794 150.346 46.5 147.882 46.5 145.312V118.188C46.5 115.618 45.4794 113.154 43.6626 111.337C41.8458 109.521 39.3818 108.5 36.8125 108.5ZM38.75 145.312C38.7492 145.826 38.5448 146.318 38.1816 146.682C37.8185 147.045 37.3261 147.249 36.8125 147.25H9.6875C9.17389 147.249 8.68154 147.045 8.31837 146.682C7.95519 146.318 7.7508 145.826 7.75 145.312V118.188C7.7508 117.674 7.95519 117.182 8.31837 116.818C8.68154 116.455 9.17389 116.251 9.6875 116.25H36.8125C37.3261 116.251 37.8185 116.455 38.1816 116.818C38.5448 117.182 38.7492 117.674 38.75 118.188V145.312Z" fill="white"/>
<path d="M31 124H15.5V139.5H31V124Z" fill="white"/>
<path d="M145.312 0H118.188C115.618 0 113.154 1.02064 111.337 2.8374C109.521 4.65416 108.5 7.11822 108.5 9.6875V36.8125C108.5 39.3818 109.521 41.8458 111.337 43.6626C113.154 45.4794 115.618 46.5 118.188 46.5H145.312C147.882 46.5 150.346 45.4794 152.163 43.6626C153.979 41.8458 155 39.3818 155 36.8125V9.6875C155 7.11822 153.979 4.65416 152.163 2.8374C150.346 1.02064 147.882 0 145.312 0V0ZM147.25 36.8125C147.249 37.3261 147.045 37.8185 146.682 38.1816C146.318 38.5448 145.826 38.7492 145.312 38.75H118.188C117.674 38.7492 117.182 38.5448 116.818 38.1816C116.455 37.8185 116.251 37.3261 116.25 36.8125V9.6875C116.251 9.17389 116.455 8.68154 116.818 8.31837C117.182 7.95519 117.674 7.7508 118.188 7.75H145.312C145.826 7.7508 146.318 7.95519 146.682 8.31837C147.045 8.68154 147.249 9.17389 147.25 9.6875V36.8125Z" fill="white"/>
<path d="M139.5 15.5H124V31H139.5V15.5Z" fill="white"/>
<path d="M62 7.75H69.75V15.5H77.5V0H73.625H69.75H54.25V3.875V7.75V15.5H62V7.75Z" fill="white"/>
<path d="M100.75 0H93V7.75H100.75V0Z" fill="white"/>
<path d="M62 38.75H69.75V31H62V23.25H54.25V54.25H62V38.75Z" fill="white"/>
<path d="M100.75 31V15.5H93V23.25H69.75V31H93H100.75Z" fill="white"/>
<path d="M85.25 46.5H69.75V54.25H85.25V46.5Z" fill="white"/>
<path d="M93 38.75V54.25V62H116.25V54.25H100.75V38.75H93Z" fill="white"/>
<path d="M139.5 62H147.25V69.75H155V62V54.25H139.5V62Z" fill="white"/>
<path d="M131.75 54.25H124V69.75H131.75V54.25Z" fill="white"/>
<path d="M108.5 100.75H116.25V69.75H108.5V77.5H100.75V69.75H93V77.5V85.25H100.75H108.5V100.75Z" fill="white"/>
<path d="M85.25 77.5H77.5V85.25H85.25V77.5Z" fill="white"/>
<path d="M147.25 85.25H139.5V77.5H131.75V85.25H124V93H131.75H139.5H147.25H155V77.5H147.25V85.25Z" fill="white"/>
<path d="M31 54.25H23.25V62H31V54.25Z" fill="white"/>
<path d="M15.5 85.25V77.5V69.75H23.25V62H7.75V54.25H0V69.75H7.75V77.5H0V85.25H7.75H15.5Z" fill="white"/>
<path d="M31 93H42.625V85.25H23.25V93H0V100.75H31V93Z" fill="white"/>
<path d="M69.75 93V77.5V69.75H77.5V62H62V69.75H46.5V54.25H38.75V77.5H42.625H46.5H62V93H54.25V116.25H62V100.75H69.75H77.5V116.25H69.75V124H77.5H81.375H85.25V93H77.5H69.75Z" fill="white"/>
<path d="M100.75 93H93V100.75H100.75V93Z" fill="white"/>
<path d="M100.75 108.5H93V124H100.75V108.5Z" fill="white"/>
<path d="M62 124H54.25V139.5H62V124Z" fill="white"/>
<path d="M69.75 139.5H77.5V147.25H54.25V155H77.5H85.25V139.5V135.625V131.75H69.75V139.5Z" fill="white"/>
<path d="M155 100.75H147.25V116.25H155V100.75Z" fill="white"/>
<path d="M116.25 108.5H108.5V116.25H116.25V108.5Z" fill="white"/>
<path d="M147.25 124H139.5V139.5H143.375H147.25H155V131.75H147.25V124Z" fill="white"/>
<path d="M131.75 139.5V131.75V124V108.5H139.5V100.75H131.75H124V108.5V124H108.5V131.75H124V139.5H108.5V143.375V147.25V155H116.25V147.25H124V155H139.5V147.25H131.75V139.5Z" fill="white"/>
<path d="M155 147.25H147.25V155H155V147.25Z" fill="white"/>
<path d="M100.75 131.75H93V139.5H100.75V131.75Z" fill="white"/>
<path d="M100.75 147.25H93V155H100.75V147.25Z" fill="white"/>
</g>
<defs>
<clipPath id="clip0_52_21">
<rect width="155" height="155" fill="white"/>
</clipPath>
</defs>
</svg>
